<?xml version="1.0" encoding="utf-8"?>
<svg width="70px" height="70px">
<path d="M34.999,0.745C16.112,0.745,0.746,16.111,0.746,35c0,18.889,15.366,34.255,34.253,34.255
	c18.89,0,34.254-15.366,34.254-34.255C69.253,16.112,53.889,0.745,34.999,0.745z M34.999,67.062C17.321,67.062,2.938,52.68,2.938,35
	c0-17.68,14.383-32.063,32.061-32.063C52.68,2.937,67.061,17.32,67.061,35C67.061,52.68,52.68,67.062,34.999,67.062z M46.521,14.989
	h-1.835c-0.002,0-0.003-0.001-0.005-0.001s-0.003,0.001-0.005,0.001h-6.11c-0.473-1.53-1.884-2.653-3.567-2.653
	s-3.095,1.123-3.568,2.653h-6.125c-0.002,0-0.003-0.001-0.005-0.001s-0.003,0.001-0.005,0.001h-1.819
	c-1.744,0-3.163,1.419-3.163,3.163v11.092c0,1.744,1.419,3.163,3.163,3.163h1.819c0.002,0,0.003,0.001,0.005,0.001
	s0.003-0.001,0.005-0.001h6.093c-0.293,5.675-1.079,22.744-0.073,25.295c0.838,2.124,2.973,2.124,3.674,2.124
	c2.344,0,3.293-1.155,3.676-2.125c1.005-2.552,0.186-19.617-0.119-25.294h6.12c0.002,0,0.003,0.001,0.005,0.001
	s0.003-0.001,0.005-0.001h1.835c1.744,0,3.163-1.419,3.163-3.163V18.152C49.685,16.408,48.266,14.989,46.521,14.989z M36.093,14.988
	h-2.187C34.467,14.43,35.53,14.431,36.093,14.988z M26.402,30.207V17.189h17.18v13.018H26.402z M22.515,29.244V18.152
	c0-0.531,0.432-0.963,0.963-0.963h0.724v13.018h-0.724C22.947,30.207,22.515,29.775,22.515,29.244z M36.629,56.894
	c-0.202,0.514-0.689,0.733-1.629,0.733c-0.848,0-1.386-0.12-1.627-0.732c-0.609-1.544-0.34-13.564,0.229-24.487h2.751
	C36.945,43.33,37.236,55.352,36.629,56.894z M47.485,29.244c0,0.531-0.433,0.963-0.964,0.963h-0.74V17.189h0.74
	c0.531,0,0.964,0.432,0.964,0.963V29.244z"/>
</svg>
