<?xml version="1.0" encoding="utf-8"?>
<svg width="70px" height="70px">
<path d="M34.999,0.745C16.112,0.745,0.746,16.111,0.746,35c0,18.889,15.366,34.255,34.253,34.255
	c18.89,0,34.254-15.366,34.254-34.255C69.253,16.112,53.889,0.745,34.999,0.745z M34.999,67.062C17.321,67.062,2.938,52.68,2.938,35
	c0-17.68,14.383-32.063,32.061-32.063C52.68,2.937,67.061,17.32,67.061,35C67.061,52.68,52.68,67.062,34.999,67.062z M35.645,17.497
	c-8.913,0-16.164,7.251-16.164,16.164c0,3.721,1.29,7.316,3.647,10.202l-3.018,8.556c-0.146,0.414-0.032,0.875,0.29,1.173
	c0.208,0.192,0.476,0.293,0.748,0.293c0.15,0,0.302-0.03,0.444-0.094l10.111-4.464c1.311,0.332,2.635,0.499,3.941,0.499
	c8.912,0,16.163-7.251,16.163-16.164C51.808,24.749,44.557,17.497,35.645,17.497z M35.645,47.627c-1.25,0-2.522-0.18-3.781-0.533
	c-0.327-0.092-0.657-0.022-0.916,0.162l-7.917,3.495l2.267-6.429c0.305-0.416,0.28-0.992-0.067-1.382
	c-2.29-2.567-3.551-5.863-3.551-9.279c0-7.7,6.264-13.964,13.963-13.964c7.699,0,13.964,6.265,13.964,13.965
	S43.344,47.627,35.645,47.627z"/>
</svg>
