<?xml version="1.0" encoding="utf-8"?>
<svg width="70px" height="70px">
<path d="M34.999,0.746C16.112,0.746,0.746,16.112,0.746,35c0,18.889,15.366,34.254,34.253,34.254
	c18.89,0,34.255-15.365,34.255-34.254C69.254,16.112,53.889,0.746,34.999,0.746z M34.999,67.062C17.32,67.062,2.938,52.68,2.938,35
	c0-17.679,14.383-32.062,32.061-32.062C52.68,2.938,67.061,17.321,67.061,35C67.061,52.68,52.68,67.062,34.999,67.062z
	 M45.871,47.981V44.87V26.955c0-0.045-0.013-0.087-0.018-0.131c-0.004-0.03-0.007-0.059-0.013-0.089
	c-0.026-0.128-0.07-0.25-0.14-0.36c-0.002-0.003-0.002-0.007-0.004-0.01l-9.773-15.297c-0.201-0.315-0.55-0.506-0.924-0.506
	s-0.723,0.191-0.924,0.506L24.3,26.364c-0.003,0.005-0.003,0.011-0.006,0.017c-0.066,0.107-0.109,0.225-0.135,0.349
	c-0.007,0.035-0.01,0.068-0.014,0.104c-0.005,0.041-0.017,0.08-0.017,0.122V44.87v3.114c-0.003,0.076-0.008,0.259,0,0.53v0.04
	c0,0.003,0.002,0.006,0.002,0.009c0.043,1.293,0.395,4.346,2.638,6.727c1.907,2.024,4.677,3.051,8.233,3.051
	c3.556,0,6.324-1.026,8.229-3.051c2.246-2.383,2.597-5.438,2.64-6.729c0-0.002,0.001-0.004,0.001-0.006v-0.027
	C45.879,48.247,45.875,48.059,45.871,47.981z M30.856,20.177c0.006,0,0.013,0.002,0.019,0.002h8.253c0.005,0,0.01-0.002,0.015-0.002
	l4.128,6.461L39.716,29l-4.073-2.934c-0.394-0.283-0.927-0.275-1.312,0.021l-3.775,2.912l-3.813-2.387L30.856,20.177z
	 M31.718,43.773V30.873l3.306-2.55l3.57,2.571v12.88H31.718z M26.322,28.934l3.204,2.006v12.833h-3.204V28.934z M40.786,30.921
	l2.894-1.922v14.774h-2.894V30.921z M26.32,45.966h17.358v1.491H26.32V45.966z M41.637,53.787c-1.477,1.566-3.709,2.361-6.636,2.361
	c-2.918,0-5.146-0.791-6.623-2.348c-1.248-1.316-1.743-2.96-1.938-4.15h17.127C43.376,50.831,42.884,52.463,41.637,53.787z"/>
</svg>
