<?xml version="1.0" encoding="utf-8"?>
<svg width="70px" height="70px">
<path d="M34.999,0.745C16.111,0.745,0.745,16.111,0.745,35c0,18.889,15.366,34.255,34.254,34.255
	c18.888,0,34.255-15.366,34.255-34.255C69.254,16.112,53.887,0.745,34.999,0.745z M34.999,67.062C17.32,67.062,2.938,52.68,2.938,35
	c0-17.68,14.382-32.063,32.061-32.063C52.678,2.937,67.062,17.32,67.062,35C67.062,52.68,52.678,67.062,34.999,67.062z
	 M34.999,14.523c-8.073,0-14.64,6.567-14.64,14.639c0,4.635,2.231,9.045,6.003,11.82c2.618,1.777,3.207,4.327,3.207,5.08v3.744
	c0,0.321,0.141,0.627,0.386,0.836c0.2,0.172,0.454,0.264,0.714,0.264c0.057,0,0.115-0.004,0.172-0.013l8.659-1.369
	c0.534-0.085,0.928-0.546,0.928-1.087v-2.375c0-0.753,0.59-3.302,3.242-5.104c3.737-2.752,5.968-7.161,5.968-11.796
	C49.638,21.09,43.071,14.523,34.999,14.523z M42.399,39.162c-3.3,2.241-4.171,5.493-4.171,6.9v1.436l-6.459,1.021v-2.457
	c0-1.407-0.872-4.66-4.137-6.876c-3.177-2.339-5.073-6.086-5.073-10.024c0-6.859,5.581-12.439,12.44-12.439
	s12.439,5.58,12.439,12.439C47.438,33.1,45.542,36.848,42.399,39.162z M36.1,20.72c0,0.607-0.492,1.1-1.1,1.1
	c-4.18,0-7.58,3.4-7.58,7.579c0,0.607-0.493,1.1-1.1,1.1s-1.1-0.493-1.1-1.1c0-5.392,4.388-9.779,9.78-9.779
	C35.607,19.62,36.1,20.112,36.1,20.72z M39.303,50.411l-8.969,1.552c-0.599,0.104-1,0.673-0.896,1.271
	c0.093,0.535,0.558,0.913,1.083,0.913c0.062,0,0.125-0.006,0.189-0.017l0.955-0.165c0.264,1.608,1.654,2.843,3.336,2.843
	c1.87,0,3.391-1.521,3.391-3.392v-0.615l1.287-0.223c0.599-0.104,1-0.673,0.896-1.271C40.471,50.71,39.909,50.311,39.303,50.411z
	 M36.191,53.417c0,0.657-0.535,1.192-1.191,1.192c-0.596,0-1.07-0.448-1.157-1.021l2.349-0.406V53.417z"/>
</svg>
