<?xml version="1.0" encoding="utf-8"?>
<svg width="70px" height="70px">
<path d="M35,0.746C16.113,0.746,0.747,16.112,0.747,35c0,18.889,15.366,34.254,34.253,34.254c18.889,0,34.254-15.365,34.254-34.254
	C69.254,16.112,53.889,0.746,35,0.746z M35,67.062C17.322,67.062,2.939,52.68,2.939,35C2.939,17.321,17.322,2.938,35,2.938
	c17.68,0,32.062,14.383,32.062,32.062C67.062,52.68,52.68,67.062,35,67.062z M46.928,16.926h-3.187v-1.975
	c0-0.605-0.49-1.096-1.097-1.096c-0.605,0-1.096,0.491-1.096,1.096v1.975H28.452v-1.975c0-0.605-0.49-1.096-1.096-1.096
	s-1.096,0.491-1.096,1.096v1.975h-3.187c-3.324,0-6.028,2.704-6.028,6.028v3.866c0,0.002-0.001,0.003-0.001,0.005
	s0.001,0.003,0.001,0.005v19.979c0,3.324,2.704,6.028,6.028,6.028h23.854c3.324,0,6.027-2.704,6.027-6.028V22.954
	C52.955,19.63,50.252,16.926,46.928,16.926z M23.073,19.118h3.187v2.41c0,0.605,0.491,1.096,1.096,1.096s1.096-0.491,1.096-1.096
	v-2.41h13.097v2.41c0,0.605,0.491,1.096,1.096,1.096c0.605,0,1.096-0.491,1.097-1.096v-2.41h3.187c2.115,0,3.836,1.721,3.836,3.836
	v2.775H19.236v-2.775C19.236,20.839,20.958,19.118,23.073,19.118z M46.928,50.645H23.073c-2.115,0-3.837-1.721-3.837-3.836V27.921
	h31.528v18.888C50.764,48.924,49.043,50.645,46.928,50.645z M30.468,32.45v12.315c-0.001,0.606-0.491,1.098-1.096,1.098
	s-1.096-0.491-1.096-1.096V32.45c0-0.605,0.49-1.096,1.096-1.096S30.468,31.845,30.468,32.45z M42.416,39.052h-1.955V32.45
	c0-0.482-0.314-0.907-0.775-1.048c-0.459-0.139-0.961,0.036-1.229,0.436l-5.194,7.697c-0.228,0.336-0.25,0.77-0.06,1.128
	c0.191,0.358,0.562,0.582,0.968,0.582h4.099v3.522c0,0.604,0.49,1.096,1.096,1.096s1.096-0.491,1.096-1.098v-3.521h1.955
	c0.605,0,1.096-0.491,1.096-1.096C43.512,39.543,43.021,39.052,42.416,39.052z M38.27,39.052h-2.037l2.037-3.017V39.052z"/>
</svg>
