<?xml version="1.0" encoding="utf-8"?>
<svg width="70px" height="70px">
<path d="M59.516,58.89c6.02-6.176,9.738-14.604,9.738-23.89c0-9.353-3.771-17.838-9.869-24.026c-0.069-0.099-0.15-0.182-0.248-0.253
	C52.94,4.56,44.408,0.746,35,0.746C16.113,0.746,0.747,16.113,0.747,35c0,9.161,3.622,17.487,9.5,23.64
	c0.023,0.025,0.044,0.05,0.069,0.073C16.553,65.203,25.31,69.254,35,69.254c9.301,0,17.742-3.73,23.921-9.768
	C59.19,59.375,59.404,59.16,59.516,58.89z M59.6,55.535V14.464c4.655,5.567,7.463,12.729,7.463,20.536
	C67.062,42.808,64.255,49.969,59.6,55.535z M48.568,5.959v2.71c0,0.667-0.543,1.21-1.209,1.21H22.537
	c-0.667,0-1.209-0.543-1.209-1.21V6.007C25.478,4.042,30.112,2.938,35,2.938C39.848,2.938,44.444,4.025,48.568,5.959z M9.958,15.013
	v39.974C5.571,49.502,2.939,42.555,2.939,35C2.939,27.446,5.571,20.499,9.958,15.013z M12.15,57.461V12.539
	c2.063-2.099,4.415-3.912,6.986-5.383V8.67c0,1.876,1.526,3.402,3.401,3.402h24.822c1.875,0,3.4-1.527,3.4-3.403V7.095
	c2.431,1.378,4.665,3.062,6.648,5.003v45.803c-1.984,1.941-4.219,3.625-6.649,5.003v-1.637c0-1.875-1.524-3.401-3.399-3.401H22.537
	c-1.875,0-3.401,1.526-3.401,3.401v1.576C16.564,61.373,14.213,59.56,12.15,57.461z M21.328,63.992v-2.725
	c0-0.666,0.542-1.209,1.209-1.209h24.822c0.666,0,1.209,0.543,1.209,1.209v2.771c-4.124,1.935-8.721,3.021-13.568,3.021
	C30.112,67.061,25.478,65.957,21.328,63.992z M22.537,53.277h24.822c1.875,0,3.4-1.525,3.399-3.4V20.061
	c0-1.876-1.524-3.402-3.399-3.402H22.537c-1.875,0-3.401,1.526-3.401,3.402v29.816C19.136,51.752,20.662,53.277,22.537,53.277z
	 M21.328,20.06c0-0.667,0.542-1.209,1.209-1.209v0.001h24.822c0.666,0,1.209,0.542,1.209,1.209v29.815
	c0,0.666-0.543,1.208-1.209,1.208H22.537c-0.667,0-1.209-0.541-1.209-1.208V20.06z M15.712,14.759c0.91,0,1.649-0.74,1.649-1.649
	c0-0.909-0.74-1.649-1.649-1.649c-0.909,0-1.649,0.74-1.649,1.649C14.063,14.019,14.802,14.759,15.712,14.759z M15.712,12.566
	c0.299,0,0.543,0.244,0.543,0.543c0,0.299-0.244,0.543-0.543,0.543c-0.299,0-0.543-0.244-0.543-0.543
	C15.169,12.81,15.413,12.566,15.712,12.566z M15.712,22.422c-0.909,0-1.649,0.739-1.649,1.649c0,0.909,0.739,1.649,1.649,1.649
	s1.649-0.74,1.649-1.649C17.361,23.162,16.621,22.422,15.712,22.422z M15.712,24.614c-0.299,0-0.543-0.244-0.543-0.543
	c0-0.299,0.244-0.543,0.543-0.543c0.299,0,0.543,0.243,0.543,0.543C16.255,24.37,16.011,24.614,15.712,24.614z M15.712,33.384
	c-0.909,0-1.649,0.74-1.649,1.649c0,0.908,0.739,1.648,1.649,1.648s1.649-0.74,1.649-1.648
	C17.361,34.124,16.621,33.384,15.712,33.384z M15.712,35.575c-0.299,0-0.543-0.243-0.543-0.543c0-0.299,0.244-0.543,0.543-0.543
	c0.299,0,0.543,0.244,0.543,0.543C16.255,35.331,16.011,35.575,15.712,35.575z M15.712,44.346c-0.909,0-1.649,0.739-1.649,1.648
	c0,0.908,0.739,1.648,1.649,1.648s1.649-0.74,1.649-1.648C17.361,45.085,16.621,44.346,15.712,44.346z M15.712,46.536
	c-0.299,0-0.543-0.244-0.543-0.543c0-0.3,0.244-0.543,0.543-0.543c0.299,0,0.543,0.243,0.543,0.543
	C16.255,46.292,16.011,46.536,15.712,46.536z M15.712,55.305c-0.909,0-1.649,0.74-1.649,1.649c0,0.91,0.739,1.649,1.649,1.649
	s1.649-0.739,1.649-1.649C17.361,56.045,16.621,55.305,15.712,55.305z M15.712,57.497c-0.299,0-0.543-0.243-0.543-0.543
	c0-0.299,0.244-0.542,0.543-0.542c0.299,0,0.543,0.243,0.543,0.542S16.011,57.497,15.712,57.497z M54.109,14.759
	c0.91,0,1.649-0.74,1.649-1.649c0-0.909-0.739-1.649-1.649-1.649c-0.908,0-1.648,0.74-1.648,1.649
	C52.461,14.019,53.201,14.759,54.109,14.759z M54.109,12.566c0.301,0,0.543,0.244,0.543,0.543c0,0.299-0.242,0.543-0.543,0.543
	c-0.299,0-0.543-0.244-0.543-0.543C53.566,12.81,53.811,12.566,54.109,12.566z M54.109,25.72c0.91,0,1.65-0.74,1.649-1.649
	c0-0.909-0.739-1.649-1.649-1.649c-0.908,0-1.648,0.739-1.648,1.649C52.461,24.98,53.201,25.72,54.109,25.72z M54.109,23.528
	c0.301,0,0.543,0.243,0.543,0.543c0,0.299-0.242,0.543-0.543,0.543c-0.299,0-0.543-0.244-0.543-0.543
	C53.566,23.772,53.811,23.528,54.109,23.528z M54.109,36.682c0.91,0,1.65-0.74,1.649-1.648c0-0.909-0.739-1.649-1.649-1.649
	c-0.908,0-1.648,0.74-1.648,1.649C52.461,35.941,53.201,36.682,54.109,36.682z M54.109,34.489c0.301,0,0.543,0.244,0.543,0.543
	c0,0.299-0.242,0.543-0.543,0.543c-0.299,0-0.543-0.243-0.543-0.543C53.566,34.733,53.811,34.489,54.109,34.489z M54.109,47.643
	c0.91,0,1.649-0.74,1.649-1.648c0-0.909-0.739-1.648-1.649-1.648c-0.908,0-1.648,0.739-1.648,1.648
	C52.461,46.902,53.201,47.643,54.109,47.643z M54.109,45.45c0.301,0,0.543,0.243,0.543,0.543c0,0.299-0.242,0.543-0.543,0.543
	c-0.299,0-0.543-0.244-0.543-0.543C53.566,45.693,53.811,45.45,54.109,45.45z M54.109,58.604c0.91,0,1.65-0.739,1.649-1.649
	c0-0.909-0.739-1.649-1.649-1.649c-0.908,0-1.648,0.74-1.648,1.649C52.461,57.864,53.201,58.604,54.109,58.604z M54.109,56.412
	c0.301,0,0.543,0.243,0.543,0.542s-0.242,0.543-0.543,0.543c-0.299,0-0.543-0.243-0.543-0.543
	C53.566,56.655,53.811,56.412,54.109,56.412z M30.228,39.666v-9.33c0-0.295,0.158-0.568,0.415-0.714s0.572-0.144,0.826,0.006
	l7.898,4.665c0.252,0.148,0.404,0.417,0.404,0.708s-0.152,0.56-0.404,0.708l-7.898,4.665c-0.129,0.076-0.273,0.114-0.418,0.114
	c-0.141,0-0.281-0.036-0.408-0.108C30.387,40.234,30.228,39.961,30.228,39.666z"/>
</svg>
