<?xml version="1.0" encoding="utf-8"?>
<svg width="70px" height="70px">
<path d="M58.731,10.334c-0.053-0.064-0.111-0.118-0.177-0.169C52.41,4.335,44.119,0.746,35,0.746
	c-9.117,0-17.406,3.587-23.549,9.415c-0.07,0.053-0.132,0.11-0.187,0.178C4.788,16.574,0.746,25.322,0.746,35
	c0,18.889,15.366,34.254,34.254,34.254c18.889,0,34.254-15.365,34.254-34.254C69.254,25.319,65.211,16.57,58.731,10.334z
	 M56.799,11.517V32.68c0,1.255-0.424,1.93-1.403,2.173c-0.377-1.993-1.892-3.273-4.294-3.559c-1.41-0.168-7.381-1.185-9.354-1.523
	c-0.604-1.578-1.494-2.911-2.598-3.882c-0.914-0.803-2.974-0.936-4.183-0.943c-1.145,0.007-3.204,0.139-4.116,0.942
	c-1.106,0.971-1.996,2.304-2.599,3.883c-0.428,0.073-1.052,0.18-1.77,0.302c-0.564-1.462-1.966-2.463-3.592-2.463
	c-2.061,0-3.735,1.628-3.839,3.664c-0.051,0.007-0.11,0.015-0.153,0.02c-2.403,0.285-3.917,1.565-4.293,3.56
	c-0.982-0.243-1.407-0.917-1.407-2.174V11.52C18.925,6.2,26.587,2.938,35,2.938C43.412,2.938,51.073,6.199,56.799,11.517z
	 M19.158,33.471c1.745-0.207,9.762-1.589,10.103-1.648c0.402-0.069,0.732-0.357,0.857-0.746c0.474-1.479,1.228-2.703,2.17-3.532
	c0.172-0.123,1.088-0.396,2.731-0.406c1.605,0.01,2.522,0.283,2.683,0.398c0.952,0.837,1.706,2.062,2.18,3.541
	c0.125,0.389,0.455,0.677,0.856,0.746c0.342,0.058,8.359,1.44,10.103,1.648c2.205,0.261,2.459,1.494,2.459,2.399v0.185
	c0,0.002-0.001,0.003-0.001,0.005s0.001,0.003,0.001,0.005v16.294c0,0.914-0.457,1.375-1.356,1.375H18.059
	c-0.901,0-1.359-0.463-1.359-1.375V35.87C16.7,34.966,16.954,33.733,19.158,33.471z M21.321,30.931
	c0.225-0.654,0.84-1.128,1.57-1.128c0.532,0,0.992,0.263,1.299,0.657C23.207,30.624,22.203,30.79,21.321,30.931z M35,67.061
	C17.321,67.061,2.938,52.68,2.938,35c0-8.139,3.054-15.575,8.069-21.235v18.914c0,2.465,1.263,4.016,3.5,4.386v15.294
	c0,2.134,1.427,3.567,3.552,3.567h33.882c2.123,0,3.552-1.433,3.554-3.567V37.065c2.235-0.372,3.496-1.922,3.496-4.385V13.763
	c5.017,5.66,8.071,13.097,8.071,21.237C67.062,52.68,52.68,67.061,35,67.061z M35,52.277c5.702,0,10.341-4.639,10.341-10.34
	S40.702,31.597,35,31.597c-5.701,0-10.34,4.637-10.34,10.34C24.66,47.639,29.298,52.277,35,52.277z M35,33.789
	c4.493,0,8.146,3.654,8.146,8.148c0,4.492-3.653,8.147-8.146,8.147s-8.148-3.655-8.148-8.147C26.852,37.443,30.507,33.789,35,33.789
	z M29.829,43.033c-0.605,0-1.096-0.491-1.096-1.096c0-3.457,2.812-6.27,6.268-6.27c0.604,0,1.097,0.491,1.097,1.096
	c0,0.605-0.492,1.098-1.098,1.098c-2.247,0-4.075,1.828-4.075,4.076C30.925,42.542,30.434,43.033,29.829,43.033z"/>
</svg>
