<?xml version="1.0" encoding="utf-8"?>
<svg width="70px" height="70px">
<path d="M35,0.745C16.112,0.745,0.746,16.112,0.746,35c0,18.889,15.366,34.255,34.254,34.255c18.889,0,34.254-15.366,34.254-34.255
	C69.254,16.111,53.889,0.745,35,0.745z M35,67.062C17.321,67.062,2.938,52.68,2.938,35C2.938,17.32,17.321,2.937,35,2.937
	c17.68,0,32.062,14.384,32.062,32.063C67.062,52.68,52.68,67.062,35,67.062z M25.717,18.737c-0.196-0.34-0.56-0.55-0.953-0.55
	s-0.756,0.21-0.953,0.55l-7.099,12.295c-0.196,0.34-0.196,0.759,0,1.1s0.56,0.55,0.953,0.55h14.197c0.007-0.001,0.013,0,0.02,0
	c0.607,0,1.1-0.493,1.1-1.1c0-0.271-0.098-0.518-0.26-0.71L25.717,18.737z M19.57,30.482l5.194-8.995l5.192,8.995H19.57z
	 M24.763,37.105c-4.084,0-7.406,3.322-7.406,7.405s3.322,7.405,7.406,7.405c4.083,0,7.406-3.322,7.406-7.405
	S28.847,37.105,24.763,37.105z M24.763,49.717c-2.871,0-5.206-2.336-5.206-5.206s2.335-5.206,5.206-5.206s5.206,2.336,5.206,5.206
	S27.634,49.717,24.763,49.717z M50.307,17.932h-12.55c-0.607,0-1.1,0.493-1.1,1.1v12.55c0,0.607,0.492,1.1,1.1,1.1h12.55
	c0.607,0,1.1-0.493,1.1-1.1v-12.55C51.406,18.425,50.914,17.932,50.307,17.932z M49.207,30.482H38.856v-10.35h10.351V30.482z
	 M51.084,39.027l-5.498,5.498l5.498,5.497c0.43,0.429,0.43,1.126,0,1.555c-0.214,0.215-0.496,0.322-0.777,0.322
	s-0.563-0.107-0.777-0.322l-5.498-5.497l-5.497,5.497c-0.214,0.215-0.496,0.322-0.777,0.322s-0.563-0.107-0.777-0.322
	c-0.43-0.429-0.43-1.126,0-1.555l5.497-5.497l-5.497-5.498c-0.43-0.429-0.43-1.126,0-1.555c0.428-0.43,1.127-0.43,1.555,0
	l5.497,5.498l5.498-5.498c0.428-0.43,1.127-0.43,1.555,0C51.514,37.901,51.514,38.599,51.084,39.027z"/>
</svg>
