<?xml version="1.0" encoding="utf-8"?>
<svg width="70px" height="70px">
<path d="M35,0.746C16.112,0.746,0.746,16.112,0.746,35c0,18.889,15.366,34.254,34.254,34.254c18.887,0,34.254-15.365,34.254-34.254
	C69.254,16.112,53.889,0.746,35,0.746z M35,67.062C17.321,67.062,2.938,52.68,2.938,35c0-13.932,8.935-25.811,21.373-30.223
	c0.858,1.937,1.318,3.918,1.318,5.908v3.985h-3.572c-0.605,0-1.096,0.491-1.096,1.096v36.855c0,0.052,0.022,0.097,0.03,0.146
	c0.01,0.077,0.019,0.151,0.045,0.226c0.026,0.072,0.067,0.134,0.108,0.198c0.027,0.043,0.039,0.093,0.073,0.134l3.205,3.821
	c0.208,0.248,0.516,0.393,0.84,0.393h19.574c3.951,0,7.166-3.246,7.166-7.234V22.446c0-2.096-1.645-3.798-3.708-3.928
	c-0.057-2.13-1.798-3.848-3.942-3.848H27.821v-3.985c0-2.222-0.47-4.428-1.389-6.575C29.162,3.352,32.033,2.938,35,2.938
	c17.678,0,32.061,14.383,32.061,32.062C67.061,52.68,52.678,67.062,35,67.062z M48.305,49.764V20.711
	c0.849,0.125,1.504,0.851,1.504,1.734v27.858c0,2.734-2.277,5.045-4.973,5.045H25.773l-1.367-1.631h19.946
	C46.531,53.717,48.305,51.943,48.305,49.764z M46.111,49.764c0,0.971-0.789,1.76-1.76,1.76H23.153V16.862h21.199
	c0.971,0,1.76,0.79,1.76,1.76V49.764z M37.895,40.352c0,0.291-0.154,0.561-0.404,0.709l-4.053,2.395
	c-0.13,0.076-0.275,0.113-0.419,0.113c-0.141,0-0.281-0.035-0.407-0.107c-0.257-0.146-0.415-0.418-0.415-0.714v-4.788
	c0-0.295,0.158-0.566,0.415-0.714c0.257-0.146,0.572-0.144,0.826,0.006l4.053,2.394C37.74,39.792,37.895,40.061,37.895,40.352z
	 M34.452,32.606c-4.271,0-7.747,3.475-7.747,7.748c0,4.271,3.476,7.746,7.747,7.746c4.271,0,7.748-3.475,7.748-7.746
	C42.2,36.081,38.723,32.606,34.452,32.606z M34.452,45.907c-3.062,0-5.554-2.492-5.554-5.554c0-3.062,2.492-5.555,5.554-5.555
	c3.062,0,5.554,2.492,5.554,5.555C40.006,43.415,37.514,45.907,34.452,45.907z"/>
</svg>
