<?xml version="1.0" encoding="utf-8"?>
<svg width="70px" height="70px">
<path d="M35,0.746C16.112,0.746,0.746,16.112,0.746,35c0,18.889,15.366,34.254,34.254,34.254c18.887,0,34.254-15.365,34.254-34.254
	C69.254,16.112,53.887,0.746,35,0.746z M35,67.062C17.321,67.062,2.938,52.68,2.938,35C2.938,17.321,17.321,2.938,35,2.938
	c17.678,0,32.061,14.383,32.061,32.062C67.061,52.68,52.678,67.062,35,67.062z M55.816,20.492h-4.631v-1.739
	c0-0.605-0.492-1.096-1.098-1.096H14.183c-0.606,0-1.097,0.491-1.097,1.096v29.918c0,2.024,1.648,3.672,3.671,3.672h36.196
	c2.221,0,3.959-1.612,3.96-3.671V21.588C56.913,20.983,56.422,20.492,55.816,20.492z M16.757,50.15
	c-0.816,0-1.479-0.664-1.479-1.479V19.849h33.715v1.734c0,0.002-0.001,0.003-0.001,0.005s0.001,0.003,0.001,0.005v26.63
	c0,0.726,0.124,1.373,0.356,1.928H16.757z M54.721,48.672c0,0.829-0.777,1.479-1.768,1.479c-0.761,0-1.768-0.199-1.768-1.926V22.684
	h3.535V48.672z M43.234,24.63c0,0.605-0.49,1.096-1.096,1.096H19.531c-0.605,0-1.096-0.491-1.096-1.096s0.49-1.096,1.096-1.096
	h22.608C42.743,23.534,43.234,24.025,43.234,24.63z M18.435,29.706c0-0.605,0.49-1.096,1.096-1.096h11.304
	c0.605,0,1.096,0.491,1.096,1.096s-0.491,1.096-1.096,1.096H19.531C18.926,30.802,18.435,30.311,18.435,29.706z M40.083,34.783
	c0,0.605-0.491,1.096-1.097,1.096H19.531c-0.605,0-1.096-0.491-1.096-1.096c0-0.605,0.49-1.096,1.096-1.096h19.456
	C39.591,33.687,40.083,34.178,40.083,34.783z M18.435,39.859c0-0.604,0.49-1.096,1.096-1.096h11.304
	c0.605,0,1.096,0.491,1.096,1.096c0,0.605-0.491,1.097-1.096,1.097H19.531C18.926,40.956,18.435,40.465,18.435,39.859z
	 M40.083,44.936c0,0.604-0.491,1.096-1.097,1.096H19.531c-0.605,0-1.096-0.491-1.096-1.096c0-0.605,0.49-1.097,1.096-1.097h19.456
	C39.591,43.839,40.083,44.33,40.083,44.936z"/>
</svg>
