<?xml version="1.0" encoding="utf-8"?>
<svg width="70px" height="70px">
<path d="M35,0.745C16.112,0.745,0.746,16.111,0.746,35c0,18.889,15.366,34.255,34.254,34.255c18.887,0,34.254-15.366,34.254-34.255
	C69.254,16.112,53.887,0.745,35,0.745z M35,67.062C17.321,67.062,2.938,52.68,2.938,35C2.938,17.32,17.321,2.937,35,2.937
	C52.678,2.937,67.061,17.32,67.061,35C67.061,52.68,52.678,67.062,35,67.062z M45.26,23.351L45.26,23.351
	c-0.476-3.534-3.132-6.459-6.713-7.648v-3.122c0-0.543-0.396-1.005-0.933-1.087l-5.141-0.789c-0.318-0.049-0.64,0.044-0.883,0.252
	c-0.244,0.209-0.384,0.514-0.384,0.835v3.994c-3.455,1.24-5.999,4.113-6.463,7.565h-0.004c-0.607,0-1.1,0.493-1.1,1.1v31.894
	c0,0.607,0.493,1.1,1.1,1.1H45.26c0.607,0,1.1-0.492,1.1-1.1V24.451C46.359,23.844,45.867,23.351,45.26,23.351z M33.406,15.124
	v-2.05l2.941,0.451v1.599H33.406z M35.001,17.324c4.05,0,7.408,2.616,8.031,6.027H26.972C27.594,19.94,30.952,17.324,35.001,17.324z
	 M25.839,55.245V25.572c0.035-0.002,0.067-0.015,0.101-0.021h18.123c0.033,0.006,0.063,0.017,0.098,0.02v29.674H25.839z"/>
</svg>
