<?xml version="1.0" encoding="utf-8"?>
<svg width="70px" height="70px">
<path d="M34.999,0.745C16.112,0.745,0.746,16.111,0.746,35c0,18.889,15.366,34.255,34.253,34.255
	c18.89,0,34.254-15.366,34.254-34.255C69.253,16.112,53.889,0.745,34.999,0.745z M34.999,67.062C17.321,67.062,2.938,52.68,2.938,35
	c0-17.68,14.383-32.063,32.061-32.063C52.68,2.937,67.061,17.32,67.061,35C67.061,52.68,52.68,67.062,34.999,67.062z M49.075,20.174
	H38.9c-0.328,0-0.645-0.215-0.69-0.355c-0.033-0.105,0.124-0.487,0.828-1c1.624-1.183,2.331-3.045,1.8-4.743
	c-0.608-1.946-2.667-3.163-5.525-3.273c-0.111-0.019-0.297-0.019-0.287-0.01c-0.029-0.002-0.121-0.007-0.15-0.007
	c-0.064,0-0.128,0.006-0.189,0.017c-2.859,0.11-4.919,1.327-5.528,3.274c-0.531,1.698,0.176,3.559,1.8,4.742
	c0.705,0.513,0.862,0.896,0.828,1c-0.045,0.14-0.362,0.355-0.689,0.355H20.922c-0.607,0-1.1,0.493-1.1,1.1v9.701
	c0,1.398,1.04,2.895,2.586,2.895c0.983,0,1.908-0.584,2.749-1.738c0.488-0.67,1.176-1.071,1.84-1.071
	c1.345,0,2.213,1.546,2.213,3.938s-0.869,3.938-2.213,3.938c-0.664,0-1.352-0.4-1.84-1.071c-0.84-1.153-1.765-1.738-2.748-1.738
	c-1.548,0-2.587,1.497-2.587,2.896v9.56c0,0.607,0.493,1.1,1.1,1.1h10.176c0.327,0,0.644,0.216,0.689,0.355
	c0.034,0.104-0.123,0.487-0.828,1c-1.625,1.184-2.332,3.045-1.801,4.742c0.608,1.947,2.669,3.164,5.529,3.274
	c0.086,0.015,0.203,0.018,0.292,0.01c0.026,0.002,0.115,0.006,0.142,0.006c0.063,0,0.125-0.005,0.186-0.016
	c2.861-0.109,4.922-1.326,5.531-3.273c0.531-1.698-0.176-3.56-1.8-4.742c-0.704-0.514-0.861-0.896-0.828-1.001
	c0.046-0.14,0.362-0.355,0.69-0.355h10.175c0.607,0,1.1-0.492,1.1-1.1v-9.56c0-1.398-1.039-2.896-2.586-2.896
	c-0.982,0-1.907,0.585-2.748,1.738c-0.888,1.221-2.412,1.422-3.252,0.302c-0.366-0.488-0.804-1.435-0.804-3.169
	c0-2.393,0.87-3.938,2.215-3.938c0.665,0,1.353,0.4,1.841,1.071c0.84,1.154,1.765,1.739,2.748,1.739
	c0.752,0,1.465-0.374,1.956-1.025c0.4-0.532,0.63-1.213,0.63-1.87v-9.701C50.175,20.667,49.683,20.174,49.075,20.174z
	 M47.976,30.975c0,0.181-0.074,0.395-0.188,0.546c-0.055,0.072-0.136,0.149-0.199,0.149c-0.135,0-0.49-0.176-0.969-0.834
	c-0.915-1.256-2.234-1.976-3.62-1.976c-2.197,0-4.414,1.898-4.414,6.139c0,1.853,0.43,3.405,1.243,4.489
	c0.799,1.063,1.925,1.649,3.171,1.649c1.386,0,2.705-0.721,3.619-1.977c0.479-0.657,0.836-0.833,0.97-0.833
	c0.139,0,0.387,0.351,0.387,0.695v8.46H38.9c-1.079,0-2.381,0.644-2.782,1.874c-0.224,0.687-0.31,2.05,1.625,3.459
	c0.85,0.619,1.24,1.525,0.995,2.309c-0.325,1.04-1.688,1.689-3.643,1.735c-0.028,0.001-0.056,0.002-0.083,0.005
	c-0.01,0-0.02,0-0.028,0c0,0-0.001,0-0.002,0c-0.026-0.003-0.053-0.004-0.08-0.005c-1.956-0.046-3.318-0.695-3.644-1.736
	c-0.245-0.782,0.146-1.688,0.996-2.308c1.935-1.409,1.849-2.772,1.625-3.46c-0.401-1.229-1.703-1.873-2.781-1.873h-9.076v-8.46
	c0-0.345,0.249-0.696,0.387-0.696c0.135,0,0.491,0.176,0.97,0.834c0.914,1.256,2.233,1.977,3.619,1.977
	c2.197,0,4.414-1.898,4.414-6.139s-2.217-6.139-4.414-6.139c-1.386,0-2.705,0.72-3.619,1.976c-0.479,0.658-0.835,0.834-0.971,0.834
	c-0.138,0-0.386-0.35-0.386-0.695v-8.601h9.076c1.079,0,2.38-0.644,2.781-1.874c0.224-0.687,0.31-2.05-1.625-3.46
	c-0.85-0.619-1.241-1.524-0.996-2.308c0.326-1.041,1.688-1.69,3.644-1.736c0.028,0,0.056-0.002,0.083-0.005
	c0.011,0,0.023-0.001,0.031,0c0.026,0.003,0.053,0.004,0.08,0.005c1.956,0.046,3.318,0.695,3.643,1.736
	c0.245,0.783-0.146,1.689-0.995,2.308c-1.935,1.41-1.849,2.773-1.625,3.46c0.401,1.23,1.703,1.874,2.782,1.874h9.075V30.975z"/>
</svg>
