<?xml version="1.0" encoding="utf-8"?>
<svg width="70px" height="70px">
<path d="M35,0.745C16.112,0.745,0.746,16.111,0.746,35c0,18.889,15.366,34.255,34.254,34.255c18.887,0,34.254-15.366,34.254-34.255
	C69.254,16.112,53.887,0.745,35,0.745z M35,67.062C17.321,67.062,2.938,52.68,2.938,35C2.938,17.32,17.321,2.937,35,2.937
	C52.678,2.937,67.061,17.32,67.061,35C67.061,52.68,52.678,67.062,35,67.062z M33.427,53.014c0,0.923,0.751,1.674,1.674,1.674
	s1.673-0.751,1.673-1.674s-0.75-1.674-1.673-1.674S33.427,52.091,33.427,53.014z M35.101,52.488c0.29,0,0.526,0.235,0.526,0.525
	s-0.236,0.525-0.526,0.525s-0.526-0.235-0.526-0.525S34.811,52.488,35.101,52.488z M46.794,16.154
	c-4.75-0.646-8.375,1.301-12.5,2.333c-4.125,1.032-7.563-1.333-12.5-1.333s-4.833,4-4.833,4h0.004V36v3.904
	c0,1.709,1.391,3.1,3.1,3.1h5.737c2.974,0,6.545,0.39,6.668,2.243c0.06,0.903-0.494,2.297-1.029,3.645
	c-0.603,1.517-1.226,3.085-1.194,4.454c0.043,1.889,1.375,4.699,4.864,4.699c3.483,0,4.817-2.809,4.864-4.699
	c0.032-1.369-0.592-2.939-1.195-4.457c-0.535-1.347-1.089-2.739-1.029-3.641c0.124-1.854,3.694-2.244,6.668-2.244h5.521
	c1.709,0,3.1-1.391,3.1-3.1V36V21.154c0-0.111-0.032-0.211-0.062-0.312C52.646,18.447,50.894,16.711,46.794,16.154z M42.753,19.012
	c4.021-0.741,6.816,1.095,6.933,1.174c0.459,0.308,0.581,0.929,0.273,1.388c-0.192,0.288-0.509,0.443-0.831,0.443
	c-0.189,0-0.382-0.054-0.552-0.167c-0.032-0.021-2.274-1.459-5.462-0.871c-0.541,0.101-1.064-0.259-1.164-0.803
	C41.851,19.633,42.21,19.111,42.753,19.012z M46.605,28.845V34.9H44.57v-6.556C45.226,28.607,45.915,28.765,46.605,28.845z
	 M40.336,26.491c0.715,0.144,1.395,0.368,2.035,0.672V34.9h-2.035V26.491z M36.102,26.523c0.698-0.134,1.378-0.208,2.035-0.222V34.9
	h-2.035V26.523z M31.869,27.977c0.689-0.335,1.368-0.624,2.033-0.857v7.78h-2.033V27.977z M27.634,29.935
	c0.67-0.168,1.35-0.424,2.035-0.782V34.9h-2.035V29.935z M23.4,30.06c0.65,0.107,1.33,0.173,2.034,0.165V34.9H23.4V30.06z
	 M19.165,28.88c0.585,0.185,1.269,0.428,2.035,0.658V34.9h-2.035V28.88z M50.84,39.904c0,0.496-0.404,0.9-0.9,0.9h-5.521
	c-2.121,0-8.575,0-8.863,4.298c-0.092,1.397,0.555,3.025,1.181,4.599c0.521,1.313,1.062,2.672,1.04,3.592
	c-0.007,0.262-0.136,2.553-2.665,2.553c-2.533,0-2.659-2.29-2.665-2.551c-0.021-0.921,0.518-2.278,1.04-3.591
	c0.626-1.575,1.273-3.203,1.18-4.603c-0.286-4.297-6.742-4.297-8.864-4.297h-5.737c-0.496,0-0.9-0.404-0.9-0.9V37.1H50.84V39.904z
	 M50.84,34.9h-2.035v-6.019c0.772-0.057,1.477-0.169,2.035-0.286V34.9z"/>
</svg>
