<?xml version="1.0" encoding="utf-8"?>
<svg width="70px" height="70px">
<path d="M35,0.746C16.113,0.746,0.747,16.113,0.747,35c0,18.889,15.366,34.254,34.253,34.254c18.889,0,34.254-15.365,34.254-34.254
	C69.254,16.113,53.889,0.746,35,0.746z M35,67.061C17.322,67.061,2.939,52.68,2.939,35C2.939,17.321,17.322,2.938,35,2.938
	c17.68,0,32.062,14.383,32.062,32.062C67.062,52.68,52.68,67.061,35,67.061z M46.812,17.412c-0.057-2.13-1.799-3.847-3.942-3.847
	H20.576c-0.606,0-1.096,0.492-1.096,1.097v36.854c0,0.052,0.022,0.097,0.03,0.146c0.01,0.077,0.019,0.151,0.045,0.226
	c0.026,0.072,0.067,0.134,0.108,0.198c0.027,0.043,0.039,0.093,0.073,0.134l3.204,3.822c0.208,0.249,0.516,0.394,0.84,0.394h19.574
	c3.953,0,7.168-3.248,7.168-7.238V21.339C50.521,19.243,48.877,17.541,46.812,17.412z M21.671,15.758H42.87
	c0.971,0,1.762,0.789,1.762,1.76v31.141c0,0.971-0.791,1.76-1.762,1.76H21.671V15.758z M48.33,49.199
	c0,2.734-2.28,5.044-4.975,5.044H24.292l-1.368-1.632H42.87c2.18,0,3.953-1.772,3.953-3.952V19.606
	c0.85,0.125,1.507,0.851,1.507,1.734V49.199z M42.912,35c0,0.605-0.49,1.096-1.096,1.096h-5.48h-2.672h-5.481
	c-0.605,0-1.096-0.49-1.096-1.096c0-0.605,0.49-1.096,1.096-1.096h5.481h2.672h5.48C42.421,33.904,42.912,34.395,42.912,35z"/>
</svg>
