<?xml version="1.0" encoding="utf-8"?>
<svg width="70px" height="70px">
<path d="M35,0.745C16.113,0.745,0.747,16.111,0.747,35c0,18.889,15.366,34.255,34.253,34.255c18.889,0,34.254-15.366,34.254-34.255
	C69.254,16.112,53.889,0.745,35,0.745z M13.607,39.957c-1.06-0.329-1.887-1.075-2.161-2.038c-0.39-1.372,0.434-2.864,2.161-4.018
	V39.957z M15.762,60.632c0.016-0.074,0.045-0.143,0.045-0.222V29.639l3.714-2.109c0.609,2.116,1.929,6.354,3.852,10.646
	c3.716,8.294,7.757,12.5,12.008,12.5c4.264,0,8.217-4.213,11.75-12.52c1.816-4.268,3.037-8.482,3.602-10.611l3.688,2.094v30.77
	c0,0.024,0.013,0.045,0.014,0.068C49.038,64.604,42.303,67.062,35,67.062C27.787,67.062,21.125,64.667,15.762,60.632z
	 M34.876,21.737l13.153,7.342c-0.967,3.293-2.422,7.444-4.238,11.063H26.77c-1.921-3.659-3.485-7.862-4.528-11.176
	C26.715,26.42,31.704,23.573,34.876,21.737z M42.597,42.343c-2.08,3.53-4.535,6.132-7.216,6.132c-2.685,0-5.202-2.601-7.365-6.132
	H42.597z M56.62,33.902c1.738,1.172,2.551,2.654,2.162,4.017c-0.274,0.964-1.102,1.709-2.162,2.038V33.902z M56.62,58.653V42.216
	c2.077-0.396,3.73-1.773,4.278-3.694c0.692-2.433-0.573-4.927-3.43-6.697l-0.849-0.474v-2.354c0-0.396-0.212-0.762-0.558-0.957
	l-5.5-3.122c-0.301-0.172-0.666-0.19-0.983-0.051c-0.317,0.139-0.552,0.42-0.63,0.758c-0.091,0.388-0.196,0.815-0.314,1.272
	L37.083,20.45c0.499-0.295,0.85-0.507,0.976-0.594c1.646-1.136,2.668-2.988,2.668-4.834c0-3.095-2.518-5.613-5.611-5.613
	c-3.095,0-5.614,2.518-5.614,5.613c0,0.607,0.493,1.1,1.1,1.1s1.1-0.493,1.1-1.1c0-1.882,1.532-3.413,3.414-3.413
	c1.882,0,3.412,1.531,3.412,3.413c0,1.355-0.887,2.45-1.717,3.022c-0.524,0.362-6.062,3.548-15.215,8.759
	c-0.121-0.43-0.229-0.833-0.324-1.201c-0.085-0.332-0.32-0.605-0.635-0.739c-0.315-0.134-0.675-0.113-0.973,0.056l-5.5,3.122
	c-0.344,0.196-0.557,0.561-0.557,0.957v2.346l-0.891,0.506c-2.813,1.744-4.078,4.239-3.385,6.671c0.547,1.92,2.2,3.299,4.276,3.694
	v16.641C7.064,52.982,2.939,44.465,2.939,35C2.939,17.32,17.321,2.937,35,2.937C52.68,2.937,67.062,17.32,67.062,35
	C67.062,44.356,63.033,52.787,56.62,58.653z"/>
</svg>
