<?xml version="1.0" encoding="utf-8"?>
<svg width="70px" height="70px">
<path d="M35,0.746C16.112,0.746,0.746,16.113,0.746,35c0,18.889,15.366,34.254,34.254,34.254c18.889,0,34.254-15.365,34.254-34.254
	C69.254,16.113,53.889,0.746,35,0.746z M35,67.061C17.321,67.061,2.938,52.68,2.938,35C2.938,17.321,17.321,2.938,35,2.938
	c17.68,0,32.062,14.383,32.062,32.062C67.062,52.68,52.68,67.061,35,67.061z M48.023,14.115c0-0.366-0.182-0.706-0.484-0.91
	C47.234,13,46.852,12.961,46.514,13.1l-19.277,7.871c-0.412,0.168-0.682,0.57-0.682,1.015v8.861c0,0.017,0,0.034,0,0.051V44.37
	c-0.812-0.457-1.8-0.71-2.894-0.71c-1.222,0-2.49,0.312-3.669,0.9c-3.367,1.687-4.989,5.035-3.693,7.627
	c0.789,1.573,2.527,2.513,4.65,2.513c1.222,0,2.489-0.312,3.667-0.902c1.548-0.774,2.792-1.953,3.503-3.317
	c0.464-0.891,0.668-1.799,0.621-2.662c0-0.011,0.006-0.021,0.006-0.031V31.608l17.086-6.976v11.986
	c-0.812-0.456-1.8-0.709-2.895-0.709c-1.222,0-2.489,0.311-3.668,0.901c-3.367,1.686-4.991,5.035-3.693,7.625
	c0.787,1.574,2.525,2.514,4.648,2.514c1.221,0,2.489-0.312,3.668-0.902c1.549-0.775,2.791-1.953,3.504-3.318
	c0.516-0.991,0.709-2.004,0.591-2.953c0.012-0.063,0.038-0.12,0.038-0.187V14.708c0-0.003-0.002-0.006-0.002-0.01V14.115z
	 M26.174,49.468c-0.5,0.959-1.401,1.802-2.54,2.371c-0.874,0.438-1.804,0.669-2.686,0.669c-1.276,0-2.281-0.486-2.689-1.301
	c-0.722-1.443,0.522-3.588,2.714-4.686c0.876-0.438,1.805-0.67,2.688-0.67c1.276,0,2.281,0.487,2.689,1.305
	C26.675,47.805,26.612,48.626,26.174,49.468z M28.748,29.241v-6.518l17.084-6.976v6.518L28.748,29.241z M45.45,41.716
	c-0.499,0.959-1.4,1.802-2.539,2.371c-0.876,0.438-1.806,0.669-2.688,0.669c-1.274,0-2.281-0.486-2.688-1.301
	c-0.723-1.441,0.523-3.587,2.714-4.686c0.876-0.438,1.806-0.668,2.688-0.668c1.275,0,2.281,0.486,2.689,1.303
	C45.952,40.053,45.889,40.874,45.45,41.716z"/>
</svg>
