<?xml version="1.0" encoding="utf-8"?>
<svg width="70px" height="70px">
<path d="M34.999,0.745C16.111,0.745,0.745,16.111,0.745,35s15.366,34.255,34.253,34.255c18.888,0,34.255-15.367,34.255-34.255
	S53.887,0.745,34.999,0.745z M34.999,67.063C17.32,67.063,2.938,52.68,2.938,35S17.32,2.937,34.999,2.937
	C52.678,2.937,67.062,17.32,67.062,35S52.678,67.063,34.999,67.063z M51.729,19.339c-3.543,3.085-7.155,4.961-10.696,5.979
	c-0.006,0.002-0.013,0.001-0.019,0.004c-0.001,0-0.002,0.001-0.003,0.002c-10.08,2.888-19.568-1.229-25.146-4.624
	c-0.519-0.314-1.195-0.151-1.512,0.368c-0.315,0.519-0.151,1.196,0.368,1.512c3.131,1.905,8.655,4.689,15.242,5.572
	c0.481,2.424,2.154,14.355-8.07,27.348c-0.376,0.478-0.293,1.169,0.184,1.544c0.202,0.159,0.441,0.236,0.679,0.236
	c0.326,0,0.648-0.144,0.865-0.42c1.932-2.455,3.461-4.866,4.672-7.19c2.084-3.549,5.504-7.553,8.943-8.274
	c4.094-0.852,6.286,4.076,6.531,4.66c-0.22,2.339-0.663,4.653-1.347,6.921c-0.176,0.582,0.153,1.195,0.735,1.371
	c0.105,0.032,0.213,0.047,0.317,0.047c0.473,0,0.91-0.307,1.053-0.783c2.591-8.589,2.028-17.766-1.601-26.617
	c3.403-1.146,6.861-3.049,10.247-5.998c0.458-0.399,0.506-1.094,0.106-1.552C52.882,18.988,52.187,18.94,51.729,19.339z
	 M43.919,42.141c-1.608-1.921-4.03-3.548-7.133-2.897c-2.085,0.437-3.978,1.708-5.58,3.2c1.909-6.591,1.434-11.777,1.044-14.065
	c0.598,0.037,1.201,0.061,1.812,0.061c2.182,0,4.443-0.248,6.741-0.819C42.799,32.416,43.843,37.31,43.919,42.141z M34.378,23.843
	c0.335,0,0.67-0.037,0.996-0.11c2.973-0.666,4.72-4.212,3.893-7.905c-0.729-3.244-3.208-5.599-5.896-5.599
	c-0.334,0-0.669,0.037-0.996,0.11c-1.495,0.334-2.718,1.379-3.443,2.941c-0.679,1.463-0.839,3.226-0.45,4.963
	C29.208,21.488,31.688,23.843,34.378,23.843z M30.928,14.207c0.431-0.928,1.115-1.539,1.928-1.721
	c0.169-0.038,0.342-0.057,0.515-0.057c1.641,0,3.252,1.668,3.75,3.88c0.552,2.466-0.468,4.883-2.228,5.277
	c-1.767,0.396-3.716-1.378-4.264-3.823C30.345,16.496,30.452,15.233,30.928,14.207z"/>
</svg>
