<?xml version="1.0" encoding="utf-8"?>
<svg width="70px" height="70px">
<path d="M35,0.745C16.112,0.745,0.746,16.111,0.746,35c0,18.889,15.366,34.255,34.254,34.255c18.887,0,34.254-15.366,34.254-34.255
	C69.254,16.112,53.887,0.745,35,0.745z M30.267,54.195v-3.579h9.549v3.579H30.267z M15.042,48.416c-0.496,0-0.9-0.404-0.9-0.9
	v-1.203h41.799v1.203c0,0.496-0.404,0.9-0.9,0.9H15.042z M55.941,44.111H14.142V22.068c0-0.496,0.404-0.9,0.9-0.9h9.785v3.713
	h-4.134c-0.393,0-0.745,0.245-0.882,0.614s-0.03,0.784,0.268,1.041l14.307,12.333c0.046,0.041,0.102,0.061,0.153,0.091
	c0.036,0.021,0.067,0.046,0.105,0.062c0.115,0.047,0.234,0.076,0.355,0.076c0.121,0,0.24-0.029,0.354-0.076
	c0.037-0.015,0.068-0.04,0.104-0.061c0.053-0.029,0.109-0.051,0.157-0.092L49.92,26.537c0.299-0.257,0.406-0.672,0.27-1.041
	c-0.139-0.369-0.489-0.614-0.883-0.614h-4.136v-3.714h9.87c0.496,0,0.9,0.404,0.9,0.9V44.111z M43.289,4.03v21.793
	c0,0.52,0.421,0.941,0.941,0.941h2.543l-11.774,10.15l-11.773-10.15h2.542c0.52,0,0.941-0.421,0.941-0.941V4.03
	C29.355,3.321,32.133,2.937,35,2.937C37.866,2.937,40.644,3.321,43.289,4.03z M35,67.062C17.321,67.062,2.938,52.68,2.938,35
	c0-14.124,9.183-26.135,21.889-30.399v14.367h-9.785c-1.709,0-3.1,1.391-3.1,3.1v23.144v2.304c0,1.709,1.391,3.101,3.1,3.101h13.025
	v3.579h-1.275c-0.607,0-1.1,0.494-1.1,1.101s0.493,1.101,1.1,1.101h16.499c0.607,0,1.1-0.494,1.1-1.101s-0.492-1.101-1.1-1.101
	h-1.275v-3.579h13.025c1.709,0,3.1-1.39,3.1-3.101v-2.303V22.068c0-1.709-1.391-3.1-3.1-3.1h-9.87V4.601
	C57.877,8.864,67.061,20.875,67.061,35C67.061,52.68,52.678,67.062,35,67.062z"/>
</svg>
