<?xml version="1.0" encoding="utf-8"?>
<svg width="70px" height="70px">
<path d="M34.999,0.745C16.112,0.745,0.746,16.111,0.746,35s15.366,34.255,34.253,34.255c18.889,0,34.254-15.367,34.254-34.255
	S53.888,0.745,34.999,0.745z M34.999,67.063C17.321,67.063,2.938,52.68,2.938,35S17.321,2.937,34.999,2.937
	c17.68,0,32.062,14.383,32.062,32.063S52.679,67.063,34.999,67.063z M55.053,17.862L30.82,13.934
	c-0.591-0.097-1.161,0.293-1.257,0.891L28.073,24h-12.95C14.517,24,14,24.522,14,25.128V42.71c0,7.373,6.011,13.371,13.384,13.371
	c5.607,0,10.418-3.474,12.4-8.379c0.051,0.001,0.106,0.006,0.157,0.006c6.456,0,12.154-4.768,13.202-11.232l2.814-17.356
	c0.047-0.287-0.021-0.581-0.191-0.816S55.34,17.908,55.053,17.862z M27.5,53.889c-6.164,0-11.5-5.015-11.5-11.178V26h23v16.71
	C39,48.874,33.664,53.889,27.5,53.889z M50.981,36.125c-0.848,5.229-5.213,9.121-10.394,9.369C40.779,44.595,41,43.665,41,42.71
	V32.373c3,0.774,5.025,3.809,4.505,7.014c-0.096,0.598,0.251,1.161,0.849,1.257c0.061,0.01,0.09,0.014,0.148,0.014
	c0.527,0,1.095-0.383,1.182-0.921C48.417,35.219,45,30.952,41,30.133v-5.005C41,24.522,40.277,24,39.672,24h-4.384
	c0.002,0,0.009-0.003,0.011-0.014l0.219-1.346c0.097-0.598-0.309-1.157-0.906-1.253c-0.6-0.097-1.161,0.311-1.258,0.909
	l-0.219,1.338C33.113,23.765,33.125,24,33.149,24h-2.855l1.258-7.743l22.068,3.586L50.981,36.125z M47.561,25.99l0.22-1.354
	c0.097-0.598,0.657-1.006,1.257-0.907c0.598,0.097,1.004,0.66,0.907,1.257l-0.22,1.354c-0.086,0.538-0.553,0.921-1.08,0.921
	c-0.059,0-0.117-0.004-0.177-0.014C47.87,27.151,47.465,26.588,47.561,25.99z M35.77,42.807c0,4.634-3.77,8.403-8.404,8.403
	s-8.404-3.77-8.404-8.403c0-0.605,0.491-1.096,1.096-1.096s1.096,0.491,1.096,1.096c0,3.425,2.787,6.211,6.211,6.211
	s6.211-2.786,6.211-6.211c0-0.605,0.491-1.096,1.097-1.096S35.77,42.202,35.77,42.807z M19,33.254v-1.371
	c0-0.605,0.395-1.096,1-1.096s1,0.491,1,1.096v1.371c0,0.605-0.395,1.096-1,1.096S19,33.859,19,33.254z M36,31.883v1.371
	c0,0.605-0.394,1.096-1,1.096s-1-0.491-1-1.096v-1.371c0-0.605,0.395-1.096,1-1.096S36,31.277,36,31.883z"/>
</svg>
